# xmcd CD database file
#
# Track frame offsets:
#	150
#	25492
#	51037
#	97583
#	123534
#	141633
#	162965
#	186794
#	203587
#	226681
#	248884
#
# Disc length: 3523 seconds
#
# Revision: 0
# Processed by: cddbd v1.5.2PL0 Copyright (c) Steve Scherf et al.
# Submitted via: CDex 1.70beta2
#
DISCID=8e0dc10b
DTITLE=Ruby Braff - Little Things
DYEAR=1976
DGENRE=Jazz
TTITLE0=Just You, Just Me
TTITLE1=Sweet Lorraine
TTITLE2=In My Solitude/ I Got Rhythm
TTITLE3=Little Things Mean A Lot
TTITLE4=I Want To Be Happy
TTITLE5=Sugar
TTITLE6=The Man I Love
TTITLE7=I Can't Get Started
TTITLE8=Mean To Me
TTITLE9=Ruby's Blues
TTITLE10=Braff Talk
EXTD=YEAR: 1976
EXTT0=
EXTT1=
EXTT2=
EXTT3=
EXTT4=
EXTT5=
EXTT6=
EXTT7=
EXTT8=
EXTT9=
EXTT10=
PLAYORDER=
